<svg width="100" height="100" viewBox="0 0 100 100" fill="none" xmlns="http://www.w3.org/2000/svg">
<path d="M35.9375 0C41.9727 0 46.875 4.89648 46.875 10.9375V89.0625C46.875 95.0977 41.9727 100 35.9375 100C31.4116 100 27.5261 97.25 25.8617 93.3207C25.2026 91.7645 23.565 90.625 21.875 90.625V90.625C14.9707 90.625 9.375 85.0195 9.375 78.125V78.125C9.375 75.7788 8.27075 73.3647 6.37955 71.9763C2.51063 69.1359 0 64.5483 0 59.375C0 56.1383 0.986188 53.1283 2.67489 50.6324C5.06971 47.093 6.25 41.7735 6.25 37.5V37.5C6.25 32.717 8.93321 28.5677 12.876 26.4601C14.5207 25.581 15.625 23.7399 15.625 21.875V21.875C15.625 17.7609 17.6165 14.1109 20.6813 11.8329C23.0337 10.0844 25.0851 7.66778 26.631 5.17758C28.5603 2.06976 32.0075 0 35.9375 0ZM73.369 5.17758C74.9149 7.66778 76.9663 10.0844 79.3187 11.8329C82.3835 14.1109 84.375 17.7609 84.375 21.875V21.875C84.375 23.7371 85.4838 25.5826 87.1258 26.4609C91.0662 28.5688 93.75 32.7176 93.75 37.5V37.5C93.75 41.7673 94.9329 47.0983 97.3248 50.6321C99.0143 53.1281 100 56.1382 100 59.375C100 64.5494 97.4918 69.1378 93.6195 71.9781C91.7264 73.3666 90.625 75.7773 90.625 78.125V78.125C90.625 85.0195 85.0195 90.625 78.125 90.625V90.625C76.435 90.625 74.7974 91.7645 74.1383 93.3207C72.474 97.25 68.5884 100 64.0625 100C58.0273 100 53.125 95.0977 53.125 89.0625V10.9375C53.125 4.89648 58.0273 0 64.0625 0C67.9925 0 71.4397 2.06976 73.369 5.17758Z" fill="#EEEEEE"/>
</svg>
