<svg width="138" height="100" viewBox="0 0 138 100" fill="none" xmlns="http://www.w3.org/2000/svg">
<path d="M7 100C3.13401 100 0 96.866 0 93V75C0 71.9792 1.06771 69.401 3.20313 67.2656C5.33854 65.1302 7.91667 64.0625 10.9375 64.0625H32.9688C34.7396 64.0625 36.4323 64.5052 38.0469 65.3906C39.6615 66.276 41.0417 67.5 42.1875 69.0625C45.2083 73.4375 49.0625 76.8229 53.75 79.2187C58.4375 81.6146 63.4375 82.8125 68.75 82.8125C74.0625 82.8125 79.0625 81.6146 83.75 79.2187C88.4375 76.8229 92.3437 73.4375 95.4687 69.0625C96.6146 67.5 97.9687 66.276 99.5312 65.3906C101.094 64.5052 102.76 64.0625 104.531 64.0625H126.562C129.583 64.0625 132.161 65.1302 134.297 67.2656C136.432 69.401 137.5 71.9792 137.5 75V93C137.5 96.866 134.366 100 130.5 100H102.556C99.4183 100 96.875 97.4567 96.875 94.3195V94.3195C96.875 89.3768 90.64 86.4433 86.1343 88.4753C85.4301 88.7929 84.7134 89.0928 83.9844 89.375C79.1406 91.25 74.0625 92.1875 68.75 92.1875C63.4375 92.1875 58.3854 91.25 53.5937 89.375C52.8262 89.0747 52.0707 88.7543 51.3272 88.4138C46.8095 86.3452 40.625 89.2779 40.625 94.2467V94.2467C40.625 97.4242 38.0492 100 34.8717 100H7ZM68.75 73.4375C65.1042 73.4375 61.5885 72.5781 58.2031 70.8594C54.8177 69.1406 52.0833 66.7708 50 63.75C48.3333 61.3542 46.3281 59.4271 43.9844 57.9687V57.9687C40.9958 56.1092 39.9432 51.9037 43.1346 50.4191C45.3023 49.4106 47.7991 48.5418 50.625 47.8125C57.0833 46.1458 63.125 45.3125 68.75 45.3125C74.375 45.3125 80.4427 46.1458 86.9531 47.8125C89.8102 48.5439 92.3312 49.4157 94.5162 50.428C97.71 51.9076 96.6604 56.1092 93.6719 57.9687V57.9687C91.3281 59.4271 89.3229 61.3542 87.6562 63.75C85.5729 66.7708 82.8385 69.1406 79.4531 70.8594C76.0677 72.5781 72.5 73.4375 68.75 73.4375ZM18.75 53.125C14.0625 53.125 10.026 51.4323 6.64062 48.0469C3.25521 44.6615 1.5625 40.625 1.5625 35.9375C1.5625 31.1458 3.25521 27.0833 6.64062 23.75C10.026 20.4167 14.0625 18.75 18.75 18.75C23.5417 18.75 27.6042 20.4167 30.9375 23.75C34.2708 27.0833 35.9375 31.1458 35.9375 35.9375C35.9375 40.625 34.2708 44.6615 30.9375 48.0469C27.6042 51.4323 23.5417 53.125 18.75 53.125ZM118.75 53.125C114.062 53.125 110.026 51.4323 106.641 48.0469C103.255 44.6615 101.562 40.625 101.562 35.9375C101.562 31.1458 103.255 27.0833 106.641 23.75C110.026 20.4167 114.062 18.75 118.75 18.75C123.542 18.75 127.604 20.4167 130.938 23.75C134.271 27.0833 135.938 31.1458 135.938 35.9375C135.938 40.625 134.271 44.6615 130.938 48.0469C127.604 51.4323 123.542 53.125 118.75 53.125ZM68.75 34.375C64.0625 34.375 60.026 32.6823 56.6406 29.2969C53.2552 25.9115 51.5625 21.875 51.5625 17.1875C51.5625 12.3958 53.2552 8.33333 56.6406 5C60.026 1.66667 64.0625 0 68.75 0C73.5417 0 77.6042 1.66667 80.9375 5C84.2708 8.33333 85.9375 12.3958 85.9375 17.1875C85.9375 21.875 84.2708 25.9115 80.9375 29.2969C77.6042 32.6823 73.5417 34.375 68.75 34.375Z" fill="#EEEEEE"/>
</svg>
